<mxfile host="Electron" modified="2023-12-05T18:07:17.646Z" agent="Mozilla/5.0 (Windows NT 10.0; Win64; x64) AppleWebKit/537.36 (KHTML, like Gecko) draw.io/22.1.2 Chrome/114.0.5735.289 Electron/25.9.4 Safari/537.36" etag="mKo5WKwAPRoxtcIlW_OD" version="22.1.2" type="device">
  <diagram name="Page-1" id="B1_IAPAxBGIca6lTpFzh">
    <mxGraphModel dx="926" dy="602" grid="1" gridSize="10" guides="1" tooltips="1" connect="1" arrows="1" fold="1" page="1" pageScale="1" pageWidth="850" pageHeight="1100" background="none" math="0" shadow="0">
      <root>
        <mxCell id="0" />
        <mxCell id="1" parent="0" />
        <mxCell id="C-XYSLuO93MByYAlipzL-1" value="&lt;i&gt;Person&lt;/i&gt;" style="swimlane;fontStyle=1;align=center;verticalAlign=top;childLayout=stackLayout;horizontal=1;startSize=26;horizontalStack=0;resizeParent=1;resizeParentMax=0;resizeLast=0;collapsible=1;marginBottom=0;whiteSpace=wrap;html=1;" vertex="1" parent="1">
          <mxGeometry x="189" y="70" width="160" height="260" as="geometry">
            <mxRectangle x="189" y="110" width="80" height="30" as="alternateBounds" />
          </mxGeometry>
        </mxCell>
        <mxCell id="C-XYSLuO93MByYAlipzL-2" value="- userNmae: String&lt;br&gt;- FirstName: String&lt;br&gt;- LastName: String&lt;br&gt;- MidName: String&lt;br&gt;- EmailAdd: String&lt;br&gt;- PhoneNum: int&lt;br&gt;- Password: String&lt;br&gt;- PhysicalAdd: String&lt;br&gt;- ID : int" style="text;strokeColor=none;fillColor=none;align=left;verticalAlign=top;spacingLeft=4;spacingRight=4;overflow=hidden;rotatable=0;points=[[0,0.5],[1,0.5]];portConstraint=eastwest;whiteSpace=wrap;html=1;" vertex="1" parent="C-XYSLuO93MByYAlipzL-1">
          <mxGeometry y="26" width="160" height="144" as="geometry" />
        </mxCell>
        <mxCell id="C-XYSLuO93MByYAlipzL-3" value="" style="line;strokeWidth=1;fillColor=none;align=left;verticalAlign=middle;spacingTop=-1;spacingLeft=3;spacingRight=3;rotatable=0;labelPosition=right;points=[];portConstraint=eastwest;strokeColor=inherit;" vertex="1" parent="C-XYSLuO93MByYAlipzL-1">
          <mxGeometry y="170" width="160" height="10" as="geometry" />
        </mxCell>
        <mxCell id="C-XYSLuO93MByYAlipzL-4" value="&lt;i&gt;+ Register(): void&lt;br&gt;+ Signin(): void&lt;/i&gt;" style="text;strokeColor=none;fillColor=none;align=left;verticalAlign=top;spacingLeft=4;spacingRight=4;overflow=hidden;rotatable=0;points=[[0,0.5],[1,0.5]];portConstraint=eastwest;whiteSpace=wrap;html=1;" vertex="1" parent="C-XYSLuO93MByYAlipzL-1">
          <mxGeometry y="180" width="160" height="80" as="geometry" />
        </mxCell>
        <mxCell id="C-XYSLuO93MByYAlipzL-16" value="LandLord" style="swimlane;fontStyle=1;align=center;verticalAlign=top;childLayout=stackLayout;horizontal=1;startSize=26;horizontalStack=0;resizeParent=1;resizeParentMax=0;resizeLast=0;collapsible=1;marginBottom=0;whiteSpace=wrap;html=1;" vertex="1" parent="1">
          <mxGeometry x="370" y="450" width="180" height="114" as="geometry" />
        </mxCell>
        <mxCell id="C-XYSLuO93MByYAlipzL-17" value="- Apartments [ ]:Apartment [ ]" style="text;strokeColor=none;fillColor=none;align=left;verticalAlign=top;spacingLeft=4;spacingRight=4;overflow=hidden;rotatable=0;points=[[0,0.5],[1,0.5]];portConstraint=eastwest;whiteSpace=wrap;html=1;" vertex="1" parent="C-XYSLuO93MByYAlipzL-16">
          <mxGeometry y="26" width="180" height="54" as="geometry" />
        </mxCell>
        <mxCell id="C-XYSLuO93MByYAlipzL-18" value="" style="line;strokeWidth=1;fillColor=none;align=left;verticalAlign=middle;spacingTop=-1;spacingLeft=3;spacingRight=3;rotatable=0;labelPosition=right;points=[];portConstraint=eastwest;strokeColor=inherit;" vertex="1" parent="C-XYSLuO93MByYAlipzL-16">
          <mxGeometry y="80" width="180" height="8" as="geometry" />
        </mxCell>
        <mxCell id="C-XYSLuO93MByYAlipzL-19" value="+&amp;nbsp;LandLord(type):&amp;nbsp;" style="text;strokeColor=none;fillColor=none;align=left;verticalAlign=top;spacingLeft=4;spacingRight=4;overflow=hidden;rotatable=0;points=[[0,0.5],[1,0.5]];portConstraint=eastwest;whiteSpace=wrap;html=1;" vertex="1" parent="C-XYSLuO93MByYAlipzL-16">
          <mxGeometry y="88" width="180" height="26" as="geometry" />
        </mxCell>
        <mxCell id="C-XYSLuO93MByYAlipzL-20" value="Apartment" style="swimlane;fontStyle=1;align=center;verticalAlign=top;childLayout=stackLayout;horizontal=1;startSize=26;horizontalStack=0;resizeParent=1;resizeParentMax=0;resizeLast=0;collapsible=1;marginBottom=0;whiteSpace=wrap;html=1;" vertex="1" parent="1">
          <mxGeometry x="500" y="70" width="220" height="234" as="geometry" />
        </mxCell>
        <mxCell id="C-XYSLuO93MByYAlipzL-21" value="- ApartmentID: int&lt;br&gt;- ApartmentName: String&lt;br&gt;- ApartmentType: enum&lt;br&gt;- Location: String&lt;br&gt;- ApartmentDescription: String&lt;br&gt;- ApartmentOwner: LandLord&lt;br&gt;- RentAmount: Double&lt;br&gt;-DepositAmount: Double&lt;br&gt;- ManagementFee: Double&lt;br&gt;- PlacementDate: Date" style="text;strokeColor=none;fillColor=none;align=left;verticalAlign=top;spacingLeft=4;spacingRight=4;overflow=hidden;rotatable=0;points=[[0,0.5],[1,0.5]];portConstraint=eastwest;whiteSpace=wrap;html=1;" vertex="1" parent="C-XYSLuO93MByYAlipzL-20">
          <mxGeometry y="26" width="220" height="174" as="geometry" />
        </mxCell>
        <mxCell id="C-XYSLuO93MByYAlipzL-22" value="" style="line;strokeWidth=1;fillColor=none;align=left;verticalAlign=middle;spacingTop=-1;spacingLeft=3;spacingRight=3;rotatable=0;labelPosition=right;points=[];portConstraint=eastwest;strokeColor=inherit;" vertex="1" parent="C-XYSLuO93MByYAlipzL-20">
          <mxGeometry y="200" width="220" height="8" as="geometry" />
        </mxCell>
        <mxCell id="C-XYSLuO93MByYAlipzL-23" value="+Apartment():" style="text;strokeColor=none;fillColor=none;align=left;verticalAlign=top;spacingLeft=4;spacingRight=4;overflow=hidden;rotatable=0;points=[[0,0.5],[1,0.5]];portConstraint=eastwest;whiteSpace=wrap;html=1;" vertex="1" parent="C-XYSLuO93MByYAlipzL-20">
          <mxGeometry y="208" width="220" height="26" as="geometry" />
        </mxCell>
        <mxCell id="C-XYSLuO93MByYAlipzL-24" value="Tenant" style="swimlane;fontStyle=1;align=center;verticalAlign=top;childLayout=stackLayout;horizontal=1;startSize=26;horizontalStack=0;resizeParent=1;resizeParentMax=0;resizeLast=0;collapsible=1;marginBottom=0;whiteSpace=wrap;html=1;" vertex="1" parent="1">
          <mxGeometry x="10" y="450" width="310" height="170" as="geometry" />
        </mxCell>
        <mxCell id="C-XYSLuO93MByYAlipzL-25" value="- EmergencyPersonName: String&lt;br&gt;- EmergencyPersonPhoneNum: String&lt;br&gt;- selectedApartment; Apartment&amp;nbsp;" style="text;strokeColor=none;fillColor=none;align=left;verticalAlign=top;spacingLeft=4;spacingRight=4;overflow=hidden;rotatable=0;points=[[0,0.5],[1,0.5]];portConstraint=eastwest;whiteSpace=wrap;html=1;" vertex="1" parent="C-XYSLuO93MByYAlipzL-24">
          <mxGeometry y="26" width="310" height="74" as="geometry" />
        </mxCell>
        <mxCell id="C-XYSLuO93MByYAlipzL-26" value="" style="line;strokeWidth=1;fillColor=none;align=left;verticalAlign=middle;spacingTop=-1;spacingLeft=3;spacingRight=3;rotatable=0;labelPosition=right;points=[];portConstraint=eastwest;strokeColor=inherit;" vertex="1" parent="C-XYSLuO93MByYAlipzL-24">
          <mxGeometry y="100" width="310" height="8" as="geometry" />
        </mxCell>
        <mxCell id="C-XYSLuO93MByYAlipzL-27" value="+&amp;nbsp;chooseApartment(selectedApart : Apartment):void&lt;br&gt;+ isAvailable(apart : Apartment):boolean&lt;br&gt;geters and seters&lt;br&gt;~&amp;nbsp; &amp;nbsp; &amp;nbsp;~&amp;nbsp; &amp;nbsp; ~&amp;nbsp; &amp;nbsp;~&amp;nbsp; ~" style="text;strokeColor=none;fillColor=none;align=left;verticalAlign=top;spacingLeft=4;spacingRight=4;overflow=hidden;rotatable=0;points=[[0,0.5],[1,0.5]];portConstraint=eastwest;whiteSpace=wrap;html=1;" vertex="1" parent="C-XYSLuO93MByYAlipzL-24">
          <mxGeometry y="108" width="310" height="62" as="geometry" />
        </mxCell>
        <mxCell id="C-XYSLuO93MByYAlipzL-31" value="" style="endArrow=none;html=1;edgeStyle=orthogonalEdgeStyle;rounded=0;entryX=0.375;entryY=0.023;entryDx=0;entryDy=0;entryPerimeter=0;exitX=0.298;exitY=0.999;exitDx=0;exitDy=0;exitPerimeter=0;" edge="1" parent="1" source="C-XYSLuO93MByYAlipzL-4" target="C-XYSLuO93MByYAlipzL-24">
          <mxGeometry relative="1" as="geometry">
            <mxPoint x="230" y="400" as="sourcePoint" />
            <mxPoint x="430" y="290" as="targetPoint" />
          </mxGeometry>
        </mxCell>
        <mxCell id="C-XYSLuO93MByYAlipzL-32" value="parent" style="edgeLabel;resizable=0;html=1;align=left;verticalAlign=bottom;" connectable="0" vertex="1" parent="C-XYSLuO93MByYAlipzL-31">
          <mxGeometry x="-1" relative="1" as="geometry" />
        </mxCell>
        <mxCell id="C-XYSLuO93MByYAlipzL-33" value="child" style="edgeLabel;resizable=0;html=1;align=right;verticalAlign=bottom;" connectable="0" vertex="1" parent="C-XYSLuO93MByYAlipzL-31">
          <mxGeometry x="1" relative="1" as="geometry">
            <mxPoint y="-4" as="offset" />
          </mxGeometry>
        </mxCell>
        <mxCell id="C-XYSLuO93MByYAlipzL-35" value="Invoice" style="swimlane;fontStyle=1;align=center;verticalAlign=top;childLayout=stackLayout;horizontal=1;startSize=26;horizontalStack=0;resizeParent=1;resizeParentMax=0;resizeLast=0;collapsible=1;marginBottom=0;whiteSpace=wrap;html=1;" vertex="1" parent="1">
          <mxGeometry x="610" y="420" width="180" height="180" as="geometry" />
        </mxCell>
        <mxCell id="C-XYSLuO93MByYAlipzL-36" value="- ID : int&lt;br&gt;- tenant: Tenant&lt;br&gt;- rentedAprt : Apartment&lt;br&gt;- issueDate : LocalDate&lt;br&gt;- amount : double" style="text;strokeColor=none;fillColor=none;align=left;verticalAlign=top;spacingLeft=4;spacingRight=4;overflow=hidden;rotatable=0;points=[[0,0.5],[1,0.5]];portConstraint=eastwest;whiteSpace=wrap;html=1;" vertex="1" parent="C-XYSLuO93MByYAlipzL-35">
          <mxGeometry y="26" width="180" height="94" as="geometry" />
        </mxCell>
        <mxCell id="C-XYSLuO93MByYAlipzL-37" value="" style="line;strokeWidth=1;fillColor=none;align=left;verticalAlign=middle;spacingTop=-1;spacingLeft=3;spacingRight=3;rotatable=0;labelPosition=right;points=[];portConstraint=eastwest;strokeColor=inherit;" vertex="1" parent="C-XYSLuO93MByYAlipzL-35">
          <mxGeometry y="120" width="180" height="8" as="geometry" />
        </mxCell>
        <mxCell id="C-XYSLuO93MByYAlipzL-38" value="+ GenerateInvoice(): Hashmap" style="text;strokeColor=none;fillColor=none;align=left;verticalAlign=top;spacingLeft=4;spacingRight=4;overflow=hidden;rotatable=0;points=[[0,0.5],[1,0.5]];portConstraint=eastwest;whiteSpace=wrap;html=1;" vertex="1" parent="C-XYSLuO93MByYAlipzL-35">
          <mxGeometry y="128" width="180" height="52" as="geometry" />
        </mxCell>
        <mxCell id="C-XYSLuO93MByYAlipzL-39" value="" style="endArrow=none;html=1;edgeStyle=orthogonalEdgeStyle;rounded=0;exitX=0.641;exitY=0.989;exitDx=0;exitDy=0;exitPerimeter=0;entryX=0.122;entryY=-0.035;entryDx=0;entryDy=0;entryPerimeter=0;" edge="1" parent="1" source="C-XYSLuO93MByYAlipzL-4" target="C-XYSLuO93MByYAlipzL-16">
          <mxGeometry relative="1" as="geometry">
            <mxPoint x="290" y="410" as="sourcePoint" />
            <mxPoint x="450" y="410" as="targetPoint" />
          </mxGeometry>
        </mxCell>
        <mxCell id="C-XYSLuO93MByYAlipzL-40" value="parent" style="edgeLabel;resizable=0;html=1;align=left;verticalAlign=bottom;" connectable="0" vertex="1" parent="C-XYSLuO93MByYAlipzL-39">
          <mxGeometry x="-1" relative="1" as="geometry" />
        </mxCell>
        <mxCell id="C-XYSLuO93MByYAlipzL-41" value="child" style="edgeLabel;resizable=0;html=1;align=right;verticalAlign=bottom;" connectable="0" vertex="1" parent="C-XYSLuO93MByYAlipzL-39">
          <mxGeometry x="1" relative="1" as="geometry" />
        </mxCell>
      </root>
    </mxGraphModel>
  </diagram>
</mxfile>
